<svg width="116" height="20" viewBox="0 0 116 20" fill="none" xmlns="http://www.w3.org/2000/svg">
<path d="M10.0003 1.66699L12.5753 6.88366L18.3337 7.72533L14.167 11.7837L15.1503 17.517L10.0003 14.8087L4.85033 17.517L5.83366 11.7837L1.66699 7.72533L7.42533 6.88366L10.0003 1.66699Z" fill="#F78A0B" stroke="black" stroke-opacity="0.1" stroke-linecap="round" stroke-linejoin="round"/>
<path d="M34.0003 1.66699L36.5753 6.88366L42.3337 7.72533L38.167 11.7837L39.1503 17.517L34.0003 14.8087L28.8503 17.517L29.8337 11.7837L25.667 7.72533L31.4253 6.88366L34.0003 1.66699Z" fill="#F78A0B" stroke="black" stroke-opacity="0.1" stroke-linecap="round" stroke-linejoin="round"/>
<path d="M58.0003 1.66699L60.5753 6.88366L66.3337 7.72533L62.167 11.7837L63.1503 17.517L58.0003 14.8087L52.8503 17.517L53.8337 11.7837L49.667 7.72533L55.4253 6.88366L58.0003 1.66699Z" fill="#F78A0B" stroke="black" stroke-opacity="0.1" stroke-linecap="round" stroke-linejoin="round"/>
<path d="M82.0003 1.66699L84.5753 6.88366L90.3337 7.72533L86.167 11.7837L87.1503 17.517L82.0003 14.8087L76.8503 17.517L77.8337 11.7837L73.667 7.72533L79.4253 6.88366L82.0003 1.66699Z" fill="#F78A0B" stroke="black" stroke-opacity="0.1" stroke-linecap="round" stroke-linejoin="round"/>
<path d="M106 1.66699L108.575 6.88366L114.334 7.72533L110.167 11.7837L111.15 17.517L106 14.8087L100.85 17.517L101.834 11.7837L97.667 7.72533L103.425 6.88366L106 1.66699Z" fill="#F78A0B" stroke="black" stroke-opacity="0.1" stroke-linecap="round" stroke-linejoin="round"/>
</svg>
